<?xml version="1.0" encoding="UTF-8"?>
<svg version="1.1" xmlns="http://www.w3.org/2000/svg" width="512" height="512">
<path d="M0 0 C0.68449219 0.69867188 1.36898438 1.39734375 2.07421875 2.1171875 C6.65366511 5.06417434 11.34142363 4.85993451 16.6875 5.125 C18.40235596 5.23654419 18.40235596 5.23654419 20.15185547 5.3503418 C24.93414143 5.6606378 29.71834757 5.92944213 34.50341797 6.19287109 C57.632602 7.49995808 78.59531078 10.82328216 95 29 C101.99713365 37.98686602 106.91489822 47.75247983 109 59 C109.57331055 59.12528076 110.14662109 59.25056152 110.73730469 59.37963867 C130.97861507 63.85537969 151.22873349 69.23592458 163.39453125 87.390625 C168.07481547 94.9975103 171.14918397 103.16761705 170.91796875 112.20703125 C170.80812822 119.06930569 170.80812822 119.06930569 174.484375 124.6171875 C177.57724011 126.90221471 180.73321178 128.97334285 184 131 C200.21808465 142.92231559 211.82872354 163.25475314 215 183 C216.25472399 197.24602254 215.49116976 210.73469514 210 224 C209.55011719 225.11117187 209.10023438 226.22234375 208.63671875 227.3671875 C203.79815111 237.59444416 195.88407971 245.09639719 188 253 C186.6216992 254.39717483 185.24342422 255.79437539 183.8658905 257.19230652 C167.08437189 274.20417042 167.08437189 274.20417042 159.74047852 280.50463867 C157.33598492 282.5704997 155.01586651 284.72406733 152.6875 286.875 C147.28843848 291.79745471 141.68596218 296.41533609 136 301 C134.31222863 302.39550519 132.62473445 303.79134569 130.9375 305.1875 C125.98906201 309.23299026 120.97428396 313.19015886 115.9375 317.125 C115.20587646 317.69887451 114.47425293 318.27274902 113.72045898 318.86401367 C112.99673096 319.42709229 112.27300293 319.9901709 111.52734375 320.5703125 C110.80281006 321.14370361 110.07827637 321.71709473 109.33178711 322.30786133 C107 324 107 324 104.24829102 325.51049805 C98.84141506 328.57472379 98.84141506 328.57472379 96.16430664 333.95019531 C95.89442237 337.52480075 95.92406776 340.98074307 96.0625 344.5625 C96.06411739 347.08724746 96.05771012 349.61201381 96.04296875 352.13671875 C96.04474121 353.33345215 96.04651367 354.53018555 96.04833984 355.76318359 C95.82091331 370.99157216 89.1996876 384.74691278 78.671875 395.59375 C66.32819652 406.71027916 51.45050797 411.6214535 34.9375 410.875 C22.44246139 409.66982444 11.02060459 404.75670659 1.125 397.0625 C-1.68013654 394.76412587 -1.68013654 394.76412587 -4.17578125 395.125 C-8.85351114 396.57425518 -13.12614186 398.84529786 -17.49804688 401.02929688 C-29.46116921 406.85528381 -42.71976936 408.1051695 -55.625 404.5 C-61.40296369 402.50609314 -66.68847242 399.65522575 -71.88916016 396.46679688 C-75.46564357 394.3585599 -75.46564357 394.3585599 -79.48828125 394.5 C-80.31714844 394.995 -81.14601562 395.49 -82 396 C-83.12792969 396.66773438 -84.25585938 397.33546875 -85.41796875 398.0234375 C-86.67495922 398.80652162 -87.93145048 399.5904075 -89.1875 400.375 C-103.43665662 409.04142605 -117.20589459 412.64564674 -134 410 C-149.9487955 406.10911028 -163.08603414 396.8939621 -172 383 C-176.7087282 374.2462739 -179.20993689 366.59747057 -178.8515625 356.640625 C-177.55645945 341.20672939 -177.55645945 341.20672939 -183.05859375 327.65625 C-186.33284419 324.97341521 -189.95827472 323.03844948 -193.74951172 321.18212891 C-197.52661889 319.19810277 -200.77323642 316.55777522 -204.125 313.9375 C-205.45151095 312.93795852 -206.77962478 311.94054053 -208.109375 310.9453125 C-216.94700949 304.27082783 -225.63326654 297.52794239 -233.79296875 290.02734375 C-235.72829285 288.24958586 -237.69403016 286.52423748 -239.6875 284.8125 C-294.85804693 236.53827144 -294.85804693 236.53827144 -297.17700195 204.55908203 C-297.81581865 177.96292866 -291.04238548 157.59885082 -272.33935547 137.94458008 C-267.57969062 133.06180832 -263.2755288 129.45979417 -257.25 126.25 C-254.19780142 124.54240825 -254.19780142 124.54240825 -252 122 C-251.06251863 117.64867136 -250.98446064 113.6885104 -251.04296875 109.26171875 C-251.17103676 97.95908919 -244.94573849 87.05258458 -237.5 78.875 C-225.85373667 67.93591015 -207.32223976 60.43235929 -191.4375 59.875 C-190.633125 59.91625 -189.82875 59.9575 -189 60 C-188.9175 58.700625 -188.835 57.40125 -188.75 56.0625 C-187.1341084 41.74390499 -176.43249719 29.08390876 -165.6875 20.25 C-153.58822082 11.32809674 -140.67314611 7.82434408 -125.875 6.9375 C-124.76060547 6.85717529 -123.64621094 6.77685059 -122.49804688 6.6940918 C-116.70143284 6.27905879 -110.90696452 5.9430424 -105.1015625 5.6796875 C-103.43891357 5.58699585 -103.43891357 5.58699585 -101.74267578 5.49243164 C-99.64601731 5.37609093 -97.54773881 5.2849943 -95.44873047 5.22436523 C-88.57270336 4.81525601 -84.63033779 2.89291237 -79.20166016 -1.30932617 C-58.57732577 -17.14693048 -20.53997283 -13.55773784 0 0 Z M-75 22 C-89.2659995 39.46792383 -86.69773857 65.94295456 -84.61352539 86.80615234 C-82.01980213 111.14951341 -76.90249432 135.22500574 -72.25390625 159.23828125 C-72.02448837 160.42468201 -71.7950705 161.61108276 -71.55870056 162.83343506 C-70.43309882 168.64711847 -69.29931456 174.45899367 -68.15014648 180.26806641 C-67.73546714 182.38573295 -67.32083271 184.50340829 -66.90625 186.62109375 C-66.71289566 187.58469315 -66.51954132 188.54829254 -66.32032776 189.54109192 C-64.13542381 200.76227338 -64.13542381 200.76227338 -66.0625 205.75 C-68.80627002 208.93631357 -70.86169328 209.44822577 -75 210 C-79.42105254 208.62295085 -81.41294637 207.88058044 -84 204 C-84.61435868 201.52815176 -85.14306014 199.0946311 -85.61645508 196.59570312 C-85.7647728 195.84193893 -85.91309052 195.08817474 -86.06590271 194.31156921 C-86.5574728 191.80277515 -87.03884177 189.29214991 -87.51953125 186.78125 C-87.86306653 185.00843598 -88.20696045 183.23569142 -88.55119324 181.4630127 C-89.27608864 177.72116175 -89.99582712 173.97836285 -90.7121582 170.23486328 C-91.43345502 166.46754032 -92.1614107 162.70162301 -92.89672852 158.93701172 C-96.61534748 139.89822231 -100.20436147 120.86311304 -102.94921875 101.65625 C-103.10149398 100.60050026 -103.10149398 100.60050026 -103.25684547 99.52342224 C-105.71691757 82.29470878 -106.99968099 65.16106377 -105.1875 47.8125 C-105.08248169 46.76304199 -105.08248169 46.76304199 -104.9753418 45.69238281 C-104.23584402 39.31928331 -102.64378067 33.19307592 -101 27 C-132.46558194 27.14641211 -132.46558194 27.14641211 -158.765625 42.6640625 C-167.06584497 51.34156519 -169.01421364 61.23963268 -169 73 C-167.30299553 128.62101836 -135.03988225 186.54595382 -111.12109375 235.546875 C-108.94210869 240.0380224 -106.77277937 244.53328374 -104.640625 249.046875 C-103.90440918 250.59906738 -103.90440918 250.59906738 -103.15332031 252.18261719 C-101.48086352 256.26816999 -101.14655258 258.65517679 -102 263 C-103.9375 266 -103.9375 266 -107 268 C-111.25586274 268.64098808 -114.92547087 268.35817638 -119 267 C-119.97363281 264.87841797 -119.97363281 264.87841797 -121 262 C-122.12406854 259.63861459 -123.26292831 257.28937827 -124.421875 254.9453125 C-125.11780247 253.52781134 -125.81342725 252.11016154 -126.50878906 250.69238281 C-127.05653992 249.57700134 -127.05653992 249.57700134 -127.61535645 248.43908691 C-144.47607871 214.05192047 -160.55633568 179.08269412 -173.02099609 142.83447266 C-173.96005405 140.11565398 -174.92468904 137.40718025 -175.89453125 134.69921875 C-182.04479976 117.24843004 -186.13572281 99.26817645 -189 81 C-203.1161123 83.05183601 -216.93293017 86.77327996 -225.9375 98.5625 C-232.72315007 108.3153519 -231.1152572 123.59519168 -229.34765625 134.77734375 C-223.48518703 165.46039899 -206.66224608 192.27160419 -187 216 C-186.29689697 216.84957275 -186.29689697 216.84957275 -185.57958984 217.71630859 C-175.62393005 229.67320761 -165.07473583 241.0165009 -153.98828125 251.9296875 C-152.71679626 253.18538349 -151.44531189 254.44108011 -150.17382812 255.69677734 C-147.6308825 258.20685529 -145.07428912 260.70193489 -142.50976562 263.18994141 C-141.31466855 264.36576835 -140.11998973 265.54202058 -138.92578125 266.71875 C-138.37320145 267.24749725 -137.82062164 267.77624451 -137.251297 268.3210144 C-133.61362143 271.93414396 -131.67615711 275.13598594 -130 280 C-130.0390625 282.6171875 -130.0390625 282.6171875 -130.625 284.875 C-130.89183594 286.01582031 -130.89183594 286.01582031 -131.1640625 287.1796875 C-131.43992188 287.78039062 -131.71578125 288.38109375 -132 289 C-134.94826763 289.98275588 -136.92652504 290.13414725 -140 290.125 C-140.86625 290.12757813 -141.7325 290.13015625 -142.625 290.1328125 C-145 290 -145 290 -148 289 C-148.7030591 287.68549244 -149.36598192 286.34916393 -150 285 C-151.44276306 283.27800493 -151.44276306 283.27800493 -153.14526367 281.64355469 C-153.78320358 281.00899353 -154.42114349 280.37443237 -155.07841492 279.72064209 C-155.76796768 279.04454895 -156.45752045 278.36845581 -157.16796875 277.671875 C-157.88100662 276.9640387 -158.59404449 276.25620239 -159.32868958 275.5269165 C-161.61026194 273.26314228 -163.89838342 271.00614329 -166.1875 268.75 C-168.45793875 266.50733494 -170.72684929 264.26317841 -172.99275208 262.01593018 C-174.40129031 260.61947599 -175.81249126 259.22570033 -177.22685242 257.83514404 C-181.16758017 253.93378684 -184.90727305 249.92060608 -188.52284241 245.71554565 C-190.38255432 243.55570793 -192.31628786 241.46858598 -194.25 239.375 C-199.83398659 233.16847436 -204.95779545 226.64884542 -210 220 C-210.79011475 218.96262695 -210.79011475 218.96262695 -211.59619141 217.90429688 C-219.76638785 207.10787909 -226.79342772 196.03058212 -233 184 C-233.47727539 183.10087891 -233.95455078 182.20175781 -234.44628906 181.27539062 C-238.32333024 173.80758248 -241.22221155 166.22641152 -243.875 158.25 C-244.2771875 157.0640625 -244.679375 155.878125 -245.09375 154.65625 C-246.0702211 151.77333532 -247.03881806 148.88804032 -248 146 C-261.96069886 154.16081787 -271.50628684 168.9356302 -275.64453125 184.41015625 C-277.10035971 195.01690648 -276.87740709 205.33280391 -272 215 C-271.54882812 215.91523438 -271.09765625 216.83046875 -270.6328125 217.7734375 C-261.5499774 234.6286489 -246.80477293 251.00575113 -232.09765625 263.21484375 C-229.83909725 265.13693213 -227.68675285 267.15768862 -225.5300293 269.19262695 C-218.91313738 275.41908418 -211.99152935 281.06949524 -204.79150391 286.60253906 C-202.98844694 288.00901196 -201.21584566 289.44653495 -199.44921875 290.8984375 C-191.17208008 297.6875261 -182.59618425 303.83866959 -173.703125 309.796875 C-170.2674818 312.10763449 -166.91212084 314.5072732 -163.57421875 316.95703125 C-158.34024724 320.78483397 -152.99941289 324.40521634 -147.5625 327.9375 C-146.58587402 328.57228271 -145.60924805 329.20706543 -144.60302734 329.86108398 C-125.15348583 342.41938059 -105.27761079 354.21044104 -84.98730469 365.35791016 C-81.98979702 367.00560847 -78.99855272 368.66427466 -76.0078125 370.32421875 C-71.46223933 372.83972273 -66.89942182 375.31980142 -62.31494141 377.76367188 C-60.87316938 378.53367119 -59.43469978 379.30992761 -58.00146484 380.09570312 C-49.10824196 384.94348542 -41.28536201 386.92106808 -31.2890625 384.28515625 C-28.07281641 383.06408861 -25.04381157 381.59137037 -22 380 C-21.27296875 379.62359375 -20.5459375 379.2471875 -19.796875 378.859375 C19.62273713 358.25944866 57.47423508 334.18759749 93.01806641 307.48681641 C94.82272651 306.13298787 96.63400946 304.78885069 98.44921875 303.44921875 C105.13422806 298.49323874 111.59132535 293.30660488 118 288 C119.77051666 286.56210999 121.54135367 285.12461434 123.3125 283.6875 C139.25806823 270.61439583 154.29495959 256.76711702 168.9375 242.25 C169.81349854 241.38705322 170.68949707 240.52410645 171.59204102 239.63500977 C183.38707209 227.85572489 194.02410897 215.12746341 194.38061523 197.64501953 C194.33345627 178.58049603 187.25168173 164.59975592 174 151 C173.46761719 150.42894531 172.93523437 149.85789063 172.38671875 149.26953125 C171.30622829 148.13166962 170.16106683 147.0555153 169 146 C168.34 146 167.68 146 167 146 C166.731875 147.01835937 166.46375 148.03671875 166.1875 149.0859375 C157.0648169 182.50914773 137.79179781 213.66450169 114.08984375 238.76953125 C112.24236927 240.74132177 110.46375802 242.75009338 108.69140625 244.7890625 C99.00666597 255.89383761 88.67999297 266.42661331 78.29882812 276.87741089 C77.270526 277.91318943 76.24381744 278.95055259 75.21875 279.98953247 C73.77082602 281.45533751 72.31618435 282.91412556 70.859375 284.37109375 C70.01858398 285.21599365 69.17779297 286.06089355 68.31152344 286.93139648 C65.01678374 289.87988924 62.96061866 290.89520524 58.5625 291.375 C54.31416556 290.9278069 52.79887473 290.21047395 50 287 C48.84650493 283.10695413 48.62540332 280.93585081 50.14160156 277.14794922 C52.24746487 273.58081818 54.77890364 270.85969614 57.734375 268.0078125 C58.29062561 267.45817841 58.84687622 266.90854431 59.41998291 266.34225464 C61.18963518 264.59585711 62.96914041 262.85996114 64.75 261.125 C67.08194229 258.839799 69.40949596 256.55019796 71.734375 254.2578125 C72.29136078 253.70955307 72.84834656 253.16129364 73.42221069 252.59642029 C77.00363584 249.04977768 80.40261301 245.40092084 83.66601562 241.55664062 C85.29878739 239.6513418 87.05556358 237.913943 88.875 236.1875 C92.74630872 232.36810538 96.13623245 228.26720943 99.53125 224.0234375 C101.24904865 221.91967776 102.97617361 219.87607469 104.78125 217.8515625 C129.55589496 189.99143062 150.82670085 153.45497516 150.19921875 115.08203125 C149.61070554 105.97738575 147.08731258 99.77712438 140.63671875 93.22265625 C132.31242424 86.20558429 119.02158667 81 108 81 C107.91548584 81.59611084 107.83097168 82.19222168 107.74389648 82.80639648 C100.88298726 130.00603722 81.89999438 174.49741611 61.69970703 217.38574219 C60.11562371 220.75413769 58.54073721 224.12663588 56.96888733 227.50074768 C55.54265033 230.5608001 54.11277085 233.61914123 52.68203735 236.67709351 C51.98839202 238.1604095 51.2956334 239.64414053 50.60385132 241.12832642 C47.44336139 247.90301461 44.25472601 254.66754985 40.8359375 261.31640625 C40.19084229 262.57819702 40.19084229 262.57819702 39.53271484 263.86547852 C37.67410649 266.45385265 35.83923399 267.59647012 33 269 C29.20568686 269.19458016 25.58924988 268.19641663 22 267 C20.26728422 262.90448996 20.29765979 257.9735472 21.7746582 253.82324219 C22.95261782 251.2418993 24.21063565 248.71508482 25.5 246.1875 C26.5170574 244.12440344 27.5325885 242.06055399 28.546875 239.99609375 C29.37928711 238.31555908 29.37928711 238.31555908 30.22851562 236.60107422 C77.42068649 149.95803381 77.42068649 149.95803381 87 56.5625 C83.66278454 47.49091431 77.19331892 39.98723761 69 35 C68.40960938 34.62359375 67.81921875 34.2471875 67.2109375 33.859375 C53.26117969 25.90504502 35.47921483 27.30315277 20 27 C20.13132324 27.65226562 20.26264648 28.30453125 20.39794922 28.9765625 C20.76126937 30.78615707 21.12301466 32.59606836 21.48339844 34.40625 C21.86320233 36.3131671 22.24690982 38.21930776 22.6328125 40.125 C28.8231901 76.28466601 19.7075572 114.39381171 12.78327942 149.81282043 C11.39500578 156.92126122 10.05572646 164.03755441 8.7421875 171.16015625 C8.20750647 174.04096423 7.67207505 176.92163162 7.13635254 179.80224609 C6.79893913 181.62358578 6.4638467 183.44535716 6.13122559 185.26757812 C5.67062764 187.78534173 5.19979226 190.30099085 4.7265625 192.81640625 C4.59563202 193.54650406 4.46470154 194.27660187 4.32980347 195.02882385 C3.4310178 199.73605083 2.11784006 203.72996918 0 208 C-2.85020173 209.70469208 -5.69861585 209.98875167 -9 210 C-14.47826087 208.04347826 -14.47826087 208.04347826 -16 205 C-16.60275928 196.69662933 -15.51853298 188.9076087 -13.83984375 180.80078125 C-13.61441895 179.66301239 -13.38899414 178.52524353 -13.15673828 177.35299683 C-12.67509157 174.92566957 -12.18863799 172.49929187 -11.69772339 170.07382202 C-10.40792743 163.69235835 -9.15887805 157.30290727 -7.90625 150.9140625 C-7.65576401 149.64058456 -7.40527802 148.36710663 -7.14720154 147.05503845 C-5.10329111 136.62730601 -3.16885823 126.18444997 -1.37088013 115.71151733 C-1.08840312 114.06636375 -0.80327408 112.42166265 -0.5151062 110.77749634 C2.2296552 95.08038516 4.41300171 79.15249281 4.3125 63.1875 C4.30831055 62.22956543 4.30412109 61.27163086 4.29980469 60.28466797 C4.06891452 45.66735551 1.36151772 30.9628558 -9 20 C-26.09791181 5.23969332 -58.95017725 6.0410253 -75 22 Z M-158 346 C-158.68677209 359.04410484 -158.68677209 359.04410484 -154 371 C-153.4225 372.03125 -152.845 373.0625 -152.25 374.125 C-144.75836084 383.69765003 -136.20143277 388.2769792 -124.23828125 389.80859375 C-115.43159154 390.32913391 -108.5717073 387.22082407 -101 383 C-101 382.01 -101 381.02 -101 380 C-101.66193359 379.62415771 -102.32386719 379.24831543 -103.00585938 378.86108398 C-117.53590006 370.59231083 -131.85343589 362.09042576 -145.98046875 353.14453125 C-149.92983845 350.64875414 -153.91950056 348.27446926 -158 346 Z M68.88671875 349.5625 C67.64365967 350.38041016 67.64365967 350.38041016 66.37548828 351.21484375 C65.48845215 351.80394531 64.60141602 352.39304687 63.6875 353 C61.84575623 354.20940632 60.00330947 355.41774279 58.16015625 356.625 C57.26570801 357.21152344 56.37125977 357.79804688 55.44970703 358.40234375 C48.53061205 362.91485696 41.45971215 367.15861358 34.31640625 371.3046875 C33.30819824 371.8925 32.29999023 372.4803125 31.26123047 373.0859375 C29.23166174 374.26724645 27.19818656 375.44187229 25.16064453 376.609375 C24.23493652 377.14820313 23.30922852 377.68703125 22.35546875 378.2421875 C21.51653076 378.7254248 20.67759277 379.20866211 19.81323242 379.70654297 C18.91568237 380.3468042 18.91568237 380.3468042 18 381 C18 381.66 18 382.32 18 383 C27.71991112 388.63410778 37.23587308 391.33728934 48.3984375 388.828125 C58.15376676 385.72282499 65.64157769 379.69172518 70.67578125 370.8125 C74.29452069 363.12668172 75.4208366 355.41673196 75 347 C72.28961723 347 71.1420232 348.06725975 68.88671875 349.5625 Z " fill="#000000" transform="translate(297,56)"/>
<path d="M0 0 C3.348157 2.37161121 4.65750859 4.01533721 6 7.875 C6 12.0430077 5.15607248 14.42900496 3 18 C-0.95901909 20.51245442 -3.03051132 21.13145609 -7.6875 20.5 C-11.49963533 18.77375004 -13.00243339 17.67552256 -15 14 C-15.86071831 9.61654798 -15.5439996 6.85226605 -13.125 3.0625 C-9.22986962 -0.71806772 -5.22963138 -0.79483171 0 0 Z " fill="#000000" transform="translate(291,286)"/>
<path d="M0 0 C3.348157 2.37161121 4.65750859 4.01533721 6 7.875 C6 12.0430077 5.15607248 14.42900496 3 18 C-0.95901909 20.51245442 -3.03051132 21.13145609 -7.6875 20.5 C-11.49963533 18.77375004 -13.00243339 17.67552256 -15 14 C-15.86071831 9.61654798 -15.5439996 6.85226605 -13.125 3.0625 C-9.22986962 -0.71806772 -5.22963138 -0.79483171 0 0 Z " fill="#000000" transform="translate(231,286)"/>
</svg>
